<svg fill="none" width="100%" height="100%" viewBox="0 0 335 212" xmlns="http://www.w3.org/2000/svg">
<g clip-path="url(#clip0_4833_161239)">
<circle cx="172.565" cy="117.95" r="78.5991" fill="url(#paint0_linear_4833_161239)"/>
<path d="M241.749 86.281C238.664 97.4392 227.773 122.377 209.582 127" stroke="#8CD6DB" stroke-linecap="round"/>
<mask id="path-3-inside-1_4833_161239" fill="white">
<path fill-rule="evenodd" clip-rule="evenodd" d="M152.268 62.0172L134.983 80.5948V173.883H210.147V80.5948L193.331 62.0172H152.268ZM167.358 93.236C171.7 93.236 175.221 89.7158 175.221 85.3735C175.221 81.0312 171.7 77.5111 167.358 77.5111C163.016 77.5111 159.496 81.0312 159.496 85.3735C159.496 89.7158 163.016 93.236 167.358 93.236Z"/>
</mask>
<path fill-rule="evenodd" clip-rule="evenodd" d="M152.268 62.0172L134.983 80.5948V173.883H210.147V80.5948L193.331 62.0172H152.268ZM167.358 93.236C171.7 93.236 175.221 89.7158 175.221 85.3735C175.221 81.0312 171.7 77.5111 167.358 77.5111C163.016 77.5111 159.496 81.0312 159.496 85.3735C159.496 89.7158 163.016 93.236 167.358 93.236Z" fill="url(#paint1_linear_4833_161239)"/>
<path d="M134.983 80.5948L133.519 79.2324L132.983 79.8083V80.5948H134.983ZM152.268 62.0172V60.0172H151.397L150.804 60.6549L152.268 62.0172ZM134.983 173.883H132.983V175.883H134.983V173.883ZM210.147 173.883V175.883H212.147V173.883H210.147ZM210.147 80.5948H212.147V79.8241L211.63 79.2526L210.147 80.5948ZM193.331 62.0172L194.814 60.6751L194.219 60.0172H193.331V62.0172ZM136.447 81.9572L153.732 63.3796L150.804 60.6549L133.519 79.2324L136.447 81.9572ZM136.983 173.883V80.5948H132.983V173.883H136.983ZM210.147 171.883H134.983V175.883H210.147V171.883ZM208.147 80.5948V173.883H212.147V80.5948H208.147ZM191.849 63.3594L208.664 81.937L211.63 79.2526L194.814 60.6751L191.849 63.3594ZM152.268 64.0172H193.331V60.0172H152.268V64.0172ZM173.221 85.3735C173.221 88.6113 170.596 91.236 167.358 91.236V95.236C172.805 95.236 177.221 90.8204 177.221 85.3735H173.221ZM167.358 79.5111C170.596 79.5111 173.221 82.1358 173.221 85.3735H177.221C177.221 79.9267 172.805 75.5111 167.358 75.5111V79.5111ZM161.496 85.3735C161.496 82.1358 164.12 79.5111 167.358 79.5111V75.5111C161.911 75.5111 157.496 79.9267 157.496 85.3735H161.496ZM167.358 91.236C164.12 91.236 161.496 88.6113 161.496 85.3735H157.496C157.496 90.8204 161.911 95.236 167.358 95.236V91.236Z" fill="#8CD6DB" mask="url(#path-3-inside-1_4833_161239)"/>
<path d="M137.082 155H208.082V172H137.082V155Z" fill="#D8EEF0"/>
<circle cx="165.454" cy="40.0889" r="3.76821" stroke="#7AC9CF"/>
<circle cx="220.012" cy="42.0051" r="1.41628" stroke="#7AC9CF"/>
<circle cx="209.849" cy="72.1547" r="1.41628" stroke="#7AC9CF"/>
<circle cx="228.073" cy="91.4912" r="1.99116" stroke="#7AC9CF"/>
<circle cx="120.995" cy="33.3295" r="1.99116" stroke="#7AC9CF"/>
<path d="M197.522 24L200.389 21.14C200.514 21.0144 200.585 20.8442 200.585 20.6666C200.585 20.4891 200.514 20.3189 200.389 20.1933C200.263 20.0678 200.093 19.9973 199.915 19.9973C199.738 19.9973 199.568 20.0678 199.442 20.1933L196.582 23.06L193.722 20.1933C193.596 20.0678 193.426 19.9973 193.249 19.9973C193.071 19.9973 192.901 20.0678 192.775 20.1933C192.65 20.3189 192.579 20.4891 192.579 20.6666C192.579 20.8442 192.65 21.0144 192.775 21.14L195.642 24L192.775 26.86C192.713 26.922 192.663 26.9957 192.629 27.0769C192.596 27.1582 192.578 27.2453 192.578 27.3333C192.578 27.4213 192.596 27.5085 192.629 27.5897C192.663 27.6709 192.713 27.7447 192.775 27.8066C192.837 27.8691 192.911 27.9187 192.992 27.9526C193.074 27.9864 193.161 28.0038 193.249 28.0038C193.337 28.0038 193.424 27.9864 193.505 27.9526C193.586 27.9187 193.66 27.8691 193.722 27.8066L196.582 24.94L199.442 27.8066C199.504 27.8691 199.578 27.9187 199.659 27.9526C199.74 27.9864 199.827 28.0038 199.915 28.0038C200.003 28.0038 200.09 27.9864 200.172 27.9526C200.253 27.9187 200.327 27.8691 200.389 27.8066C200.451 27.7447 200.501 27.6709 200.535 27.5897C200.568 27.5085 200.586 27.4213 200.586 27.3333C200.586 27.2453 200.568 27.1582 200.535 27.0769C200.501 26.9957 200.451 26.922 200.389 26.86L197.522 24Z" fill="#7AC9CF"/>
<path d="M137.17 47L138.961 45.2125C139.04 45.134 139.084 45.0276 139.084 44.9167C139.084 44.8057 139.04 44.6993 138.961 44.6208C138.883 44.5424 138.776 44.4983 138.665 44.4983C138.554 44.4983 138.448 44.5424 138.37 44.6208L136.582 46.4125L134.795 44.6208C134.716 44.5424 134.61 44.4983 134.499 44.4983C134.388 44.4983 134.281 44.5424 134.203 44.6208C134.124 44.6993 134.08 44.8057 134.08 44.9167C134.08 45.0276 134.124 45.134 134.203 45.2125L135.995 47L134.203 48.7875C134.164 48.8262 134.133 48.8723 134.112 48.9231C134.09 48.9739 134.08 49.0283 134.08 49.0833C134.08 49.1383 134.09 49.1928 134.112 49.2436C134.133 49.2943 134.164 49.3404 134.203 49.3792C134.242 49.4182 134.288 49.4492 134.338 49.4704C134.389 49.4915 134.444 49.5024 134.499 49.5024C134.554 49.5024 134.608 49.4915 134.659 49.4704C134.71 49.4492 134.756 49.4182 134.795 49.3792L136.582 47.5875L138.37 49.3792C138.408 49.4182 138.454 49.4492 138.505 49.4704C138.556 49.4915 138.61 49.5024 138.665 49.5024C138.72 49.5024 138.775 49.4915 138.826 49.4704C138.876 49.4492 138.922 49.4182 138.961 49.3792C139 49.3404 139.031 49.2943 139.052 49.2436C139.074 49.1928 139.084 49.1383 139.084 49.0833C139.084 49.0283 139.074 48.9739 139.052 48.9231C139.031 48.8723 139 48.8262 138.961 48.7875L137.17 47Z" fill="#7AC9CF"/>
<path d="M112.031 77.8609L112.977 76.0709C113.018 75.9923 113.027 75.9006 113.001 75.8158C112.974 75.731 112.916 75.6601 112.837 75.6187C112.759 75.5773 112.667 75.5688 112.582 75.5951C112.497 75.6214 112.426 75.6803 112.385 75.7588L111.443 77.5511L109.653 76.605C109.574 76.5636 109.483 76.5551 109.398 76.5814C109.313 76.6077 109.242 76.6665 109.201 76.7451C109.159 76.8236 109.151 76.9154 109.177 77.0001C109.203 77.0849 109.262 77.1558 109.341 77.1972L111.133 78.1391L110.187 79.9291C110.166 79.968 110.154 80.0105 110.15 80.0544C110.145 80.0982 110.15 80.1424 110.163 80.1844C110.176 80.2264 110.197 80.2655 110.225 80.2993C110.254 80.3331 110.288 80.3609 110.327 80.3813C110.366 80.402 110.409 80.4147 110.452 80.4189C110.496 80.423 110.54 80.4185 110.582 80.4054C110.624 80.3924 110.663 80.3712 110.697 80.343C110.731 80.3148 110.759 80.2802 110.779 80.2412L111.721 78.449L113.511 79.395C113.55 79.4157 113.593 79.4285 113.636 79.4326C113.68 79.4367 113.724 79.4322 113.766 79.4192C113.809 79.4061 113.848 79.3849 113.881 79.3567C113.915 79.3286 113.943 79.294 113.963 79.2549C113.984 79.2161 113.997 79.1735 114.001 79.1297C114.005 79.0859 114.001 79.0417 113.988 78.9997C113.975 78.9577 113.953 78.9186 113.925 78.8848C113.897 78.851 113.862 78.8232 113.823 78.8028L112.031 77.8609Z" fill="#7AC9CF"/>
<path d="M238.143 66.1756L240.387 65.0052C240.485 64.9537 240.559 64.8653 240.592 64.7595C240.625 64.6536 240.615 64.5388 240.564 64.4405C240.512 64.3422 240.424 64.2683 240.318 64.2352C240.212 64.202 240.097 64.2123 239.999 64.2637L237.758 65.4394L236.587 63.1954C236.536 63.0971 236.447 63.0233 236.342 62.9901C236.236 62.9569 236.121 62.9672 236.023 63.0186C235.924 63.0701 235.85 63.1584 235.817 63.2643C235.784 63.3702 235.794 63.4849 235.846 63.5833L237.022 65.8245L234.778 66.9949C234.729 67.0202 234.685 67.0549 234.65 67.0971C234.615 67.1392 234.588 67.1879 234.572 67.2404C234.555 67.2929 234.549 67.3481 234.554 67.4029C234.559 67.4577 234.575 67.5109 234.601 67.5596C234.626 67.6084 234.661 67.6518 234.703 67.6871C234.745 67.7225 234.794 67.7491 234.846 67.7656C234.899 67.782 234.954 67.7879 235.009 67.7829C235.064 67.7779 235.117 67.7621 235.165 67.7364L237.407 66.5607L238.577 68.8046C238.602 68.8535 238.637 68.8968 238.679 68.9322C238.721 68.9676 238.77 68.9942 238.823 69.0107C238.875 69.0271 238.93 69.033 238.985 69.028C239.04 69.0229 239.093 69.0071 239.142 68.9814C239.191 68.9561 239.234 68.9214 239.269 68.8793C239.305 68.8372 239.331 68.7884 239.348 68.736C239.364 68.6835 239.37 68.6282 239.365 68.5735C239.36 68.5187 239.344 68.4654 239.318 68.4168L238.143 66.1756Z" fill="#7AC9CF"/>
<path d="M85 148.476C89.5085 132.173 104.288 95.8385 130.869 89.0841C157.449 82.3297 170.073 89.4724 172.621 92.869" stroke="#8CD6DB" stroke-linecap="round"/>
</g>
<defs>
<linearGradient id="paint0_linear_4833_161239" x1="172.565" y1="39.3509" x2="172.565" y2="196.549" gradientUnits="userSpaceOnUse">
<stop stop-color="#F5FCFC"/>
<stop offset="1" stop-color="#D8EEF0"/>
</linearGradient>
<linearGradient id="paint1_linear_4833_161239" x1="172.565" y1="62.0172" x2="172.565" y2="173.883" gradientUnits="userSpaceOnUse">
<stop stop-color="white"/>
<stop offset="1" stop-color="white" stop-opacity="0"/>
</linearGradient>
<clipPath id="clip0_4833_161239">
<rect width="335" height="212" fill="white"/>
</clipPath>
</defs>
</svg>
