<svg width="100%" height="100%" viewBox="0 0 20 20" fill="none" xmlns="http://www.w3.org/2000/svg">
  <path d="M10.0184 9.01219L13.8018 12.7955C13.9579 12.9507 14.1691 13.0379 14.3893 13.0379C14.6094 13.0379 14.8206 12.9507 14.9768 12.7955C15.0549 12.7181 15.1169 12.6259 15.1592 12.5243C15.2015 12.4228 15.2233 12.3139 15.2233 12.2039C15.2233 12.0939 15.2015 11.9849 15.1592 11.8834C15.1169 11.7818 15.0549 11.6897 14.9768 11.6122L10.6101 7.24553C10.5326 7.16742 10.4405 7.10543 10.3389 7.06312C10.2374 7.02081 10.1284 6.99903 10.0184 6.99903C9.90842 6.99903 9.7995 7.02081 9.69795 7.06312C9.5964 7.10543 9.50424 7.16742 9.42677 7.24553L5.01843 11.6122C4.9412 11.6901 4.8801 11.7824 4.83862 11.8839C4.79716 11.9855 4.77613 12.0942 4.77677 12.2039C4.77613 12.3135 4.79716 12.4223 4.83862 12.5238C4.8801 12.6253 4.9412 12.7177 5.01843 12.7955C5.17457 12.9507 5.38578 13.0379 5.60593 13.0379C5.82609 13.0379 6.0373 12.9507 6.19343 12.7955L10.0184 9.01219Z" fill="currentColor"/>
</svg>