<svg viewBox="0 0 20 20" fill="none" xmlns="http://www.w3.org/2000/svg">
<g clip-path="url(#clip0_6253_8300)">
<path d="M9.98157 11.0247L6.19823 7.24134C6.0421 7.08613 5.83089 6.99902 5.61073 6.99902C5.39058 6.99902 5.17937 7.08613 5.02323 7.24134C4.94512 7.31881 4.88313 7.41098 4.84082 7.51253C4.79851 7.61408 4.77673 7.723 4.77673 7.83301C4.77673 7.94302 4.79851 8.05194 4.84082 8.15349C4.88313 8.25504 4.94512 8.34721 5.02323 8.42468L9.3899 12.7913C9.46737 12.8695 9.55954 12.9314 9.66108 12.9738C9.76263 13.0161 9.87156 13.0378 9.98157 13.0378C10.0916 13.0378 10.2005 13.0161 10.302 12.9738C10.4036 12.9314 10.4958 12.8695 10.5732 12.7913L14.9816 8.42468C15.0588 8.34681 15.1199 8.25446 15.1614 8.15293C15.2028 8.0514 15.2239 7.94268 15.2232 7.83301C15.2239 7.72334 15.2028 7.61462 15.1614 7.51309C15.1199 7.41156 15.0588 7.31921 14.9816 7.24134C14.8254 7.08613 14.6142 6.99902 14.3941 6.99902C14.1739 6.99902 13.9627 7.08613 13.8066 7.24134L9.98157 11.0247Z" fill="currentColor"/>
</g>
<defs>
<clipPath id="clip0_6253_8300">
<rect width="20" height="20" fill="white"/>
</clipPath>
</defs>
</svg>
