<svg width="18" height="18" viewBox="0 0 18 18" fill="none" xmlns="http://www.w3.org/2000/svg">
<path d="M11.5 8.16667H9.8333V4.83333C9.8333 4.61232 9.7455 4.40036 9.58922 4.24408C9.43294 4.0878 9.22098 4 8.99996 4C8.77895 4 8.56699 4.0878 8.41071 4.24408C8.25443 4.40036 8.16663 4.61232 8.16663 4.83333V9C8.16663 9.22101 8.25443 9.43297 8.41071 9.58926C8.56699 9.74554 8.77895 9.83333 8.99996 9.83333H11.5C11.721 9.83333 11.9329 9.74554 12.0892 9.58926C12.2455 9.43297 12.3333 9.22101 12.3333 9C12.3333 8.77899 12.2455 8.56702 12.0892 8.41074C11.9329 8.25446 11.721 8.16667 11.5 8.16667ZM8.99996 0.666666C7.35179 0.666666 5.74062 1.15541 4.37021 2.07109C2.9998 2.98676 1.9317 4.28825 1.30097 5.81097C0.670237 7.33369 0.505209 9.00924 0.826752 10.6258C1.1483 12.2423 1.94197 13.7271 3.10741 14.8926C4.27284 16.058 5.7577 16.8517 7.37421 17.1732C8.99072 17.4948 10.6663 17.3297 12.189 16.699C13.7117 16.0683 15.0132 15.0002 15.9289 13.6298C16.8446 12.2593 17.3333 10.6482 17.3333 9C17.3333 7.90565 17.1177 6.82202 16.699 5.81097C16.2802 4.79992 15.6663 3.88126 14.8925 3.10744C14.1187 2.33362 13.2 1.71979 12.189 1.301C11.1779 0.882214 10.0943 0.666666 8.99996 0.666666ZM8.99996 15.6667C7.68142 15.6667 6.39249 15.2757 5.29616 14.5431C4.19983 13.8106 3.34535 12.7694 2.84077 11.5512C2.33618 10.333 2.20416 8.9926 2.46139 7.6994C2.71863 6.40619 3.35357 5.2183 4.28592 4.28595C5.21827 3.3536 6.40615 2.71867 7.69936 2.46143C8.99257 2.2042 10.333 2.33622 11.5512 2.8408C12.7694 3.34539 13.8105 4.19987 14.5431 5.2962C15.2756 6.39253 15.6666 7.68146 15.6666 9C15.6666 10.7681 14.9643 12.4638 13.714 13.714C12.4638 14.9643 10.7681 15.6667 8.99996 15.6667Z" fill="currentColor"/>
</svg>
