<svg viewBox="0 0 16 16" fill="none" xmlns="http://www.w3.org/2000/svg">
    <path d="M8.94 7.99998L11.8067 5.13998C11.9322 5.01445 12.0027 4.84418 12.0027 4.66665C12.0027 4.48911 11.9322 4.31885 11.8067 4.19331C11.6811 4.06778 11.5109 3.99725 11.3333 3.99725C11.1558 3.99725 10.9855 4.06778 10.86 4.19331L8 7.05998L5.14 4.19331C5.01447 4.06778 4.84421 3.99725 4.66667 3.99725C4.48914 3.99725 4.31887 4.06778 4.19334 4.19331C4.0678 4.31885 3.99728 4.48911 3.99728 4.66665C3.99728 4.84418 4.0678 5.01445 4.19334 5.13998L7.06 7.99998L4.19334 10.86C4.13085 10.922 4.08126 10.9957 4.04741 11.0769C4.01357 11.1582 3.99614 11.2453 3.99614 11.3333C3.99614 11.4213 4.01357 11.5085 4.04741 11.5897C4.08126 11.6709 4.13085 11.7447 4.19334 11.8066C4.25531 11.8691 4.32905 11.9187 4.41029 11.9526C4.49153 11.9864 4.57866 12.0038 4.66667 12.0038C4.75468 12.0038 4.84182 11.9864 4.92306 11.9526C5.0043 11.9187 5.07803 11.8691 5.14 11.8066L8 8.93998L10.86 11.8066C10.922 11.8691 10.9957 11.9187 11.077 11.9526C11.1582 11.9864 11.2453 12.0038 11.3333 12.0038C11.4213 12.0038 11.5085 11.9864 11.5897 11.9526C11.671 11.9187 11.7447 11.8691 11.8067 11.8066C11.8692 11.7447 11.9188 11.6709 11.9526 11.5897C11.9864 11.5085 12.0039 11.4213 12.0039 11.3333C12.0039 11.2453 11.9864 11.1582 11.9526 11.0769C11.9188 10.9957 11.8692 10.922 11.8067 10.86L8.94 7.99998Z" fill="currentColor" />
</svg>
    