<svg viewBox="0 0 20 20" fill="none" xmlns="http://www.w3.org/2000/svg">
    <path d="M10.25 10.1833C10.6947 9.79844 11.0513 9.3224 11.2957 8.78752C11.5402 8.25263 11.6667 7.67142 11.6667 7.08333C11.6667 5.97826 11.2277 4.91845 10.4463 4.13705C9.66489 3.35565 8.60508 2.91666 7.50001 2.91666C6.39494 2.91666 5.33513 3.35565 4.55373 4.13705C3.77233 4.91845 3.33334 5.97826 3.33334 7.08333C3.33334 7.67142 3.45984 8.25263 3.70428 8.78752C3.94872 9.3224 4.30536 9.79844 4.75001 10.1833C3.58346 10.7116 2.59373 11.5646 1.89916 12.6405C1.20459 13.7163 0.83457 14.9694 0.833344 16.25C0.833344 16.471 0.921141 16.683 1.07742 16.8393C1.2337 16.9955 1.44566 17.0833 1.66668 17.0833C1.88769 17.0833 2.09965 16.9955 2.25593 16.8393C2.41221 16.683 2.50001 16.471 2.50001 16.25C2.50001 14.9239 3.02679 13.6521 3.96448 12.7145C4.90216 11.7768 6.17393 11.25 7.50001 11.25C8.82609 11.25 10.0979 11.7768 11.0355 12.7145C11.9732 13.6521 12.5 14.9239 12.5 16.25C12.5 16.471 12.5878 16.683 12.7441 16.8393C12.9004 16.9955 13.1123 17.0833 13.3333 17.0833C13.5544 17.0833 13.7663 16.9955 13.9226 16.8393C14.0789 16.683 14.1667 16.471 14.1667 16.25C14.1655 14.9694 13.7954 13.7163 13.1009 12.6405C12.4063 11.5646 11.4166 10.7116 10.25 10.1833ZM7.50001 9.58333C7.00556 9.58333 6.52221 9.43671 6.11108 9.16201C5.69996 8.8873 5.37953 8.49686 5.19031 8.04004C5.00109 7.58322 4.95158 7.08056 5.04805 6.59561C5.14451 6.11065 5.38261 5.6652 5.73224 5.31556C6.08187 4.96593 6.52733 4.72783 7.01228 4.63137C7.49724 4.53491 7.9999 4.58441 8.45672 4.77363C8.91353 4.96285 9.30398 5.28328 9.57868 5.69441C9.85339 6.10553 10 6.58888 10 7.08333C10 7.74637 9.73662 8.38226 9.26778 8.8511C8.79894 9.31994 8.16305 9.58333 7.50001 9.58333ZM15.6167 9.85C16.15 9.24944 16.4984 8.50754 16.6198 7.71361C16.7413 6.91968 16.6308 6.10756 16.3015 5.375C15.9722 4.64244 15.4382 4.02066 14.7637 3.58452C14.0893 3.14837 13.3032 2.91645 12.5 2.91666C12.279 2.91666 12.067 3.00446 11.9108 3.16074C11.7545 3.31702 11.6667 3.52898 11.6667 3.75C11.6667 3.97101 11.7545 4.18297 11.9108 4.33925C12.067 4.49553 12.279 4.58333 12.5 4.58333C13.1631 4.58333 13.7989 4.84672 14.2678 5.31556C14.7366 5.78441 15 6.42029 15 7.08333C14.9988 7.52103 14.8828 7.95075 14.6634 8.32952C14.444 8.70828 14.1291 9.02282 13.75 9.24166C13.6265 9.31293 13.5233 9.41472 13.4503 9.53728C13.3774 9.65984 13.3371 9.79908 13.3333 9.94167C13.3299 10.0831 13.3625 10.2232 13.4281 10.3485C13.4937 10.4739 13.5901 10.5805 13.7083 10.6583L14.0333 10.875L14.1417 10.9333C15.1462 11.4098 15.9936 12.1633 16.5842 13.1053C17.1747 14.0472 17.4838 15.1383 17.475 16.25C17.475 16.471 17.5628 16.683 17.7191 16.8393C17.8754 16.9955 18.0873 17.0833 18.3083 17.0833C18.5294 17.0833 18.7413 16.9955 18.8976 16.8393C19.0539 16.683 19.1417 16.471 19.1417 16.25C19.1485 14.9712 18.8282 13.7119 18.2112 12.5917C17.5943 11.4716 16.7011 10.5278 15.6167 9.85Z" fill="currentColor" />
</svg>
    