<svg viewBox="0 0 16 16" fill="none" xmlns="http://www.w3.org/2000/svg">
<path d="M4.19332 9.52667L3.99999 9.72667V4.66667C3.99999 4.48986 3.92975 4.32029 3.80473 4.19526C3.6797 4.07024 3.51014 4 3.33332 4C3.15651 4 2.98694 4.07024 2.86192 4.19526C2.7369 4.32029 2.66666 4.48986 2.66666 4.66667V9.72667L2.47332 9.52667C2.34779 9.40113 2.17753 9.33061 1.99999 9.33061C1.82246 9.33061 1.65219 9.40113 1.52666 9.52667C1.40112 9.6522 1.3306 9.82247 1.3306 10C1.3306 10.1775 1.40112 10.3478 1.52666 10.4733L2.85999 11.8067C2.92339 11.8674 2.99816 11.9149 3.07999 11.9467C3.15979 11.9819 3.24608 12.0002 3.33332 12.0002C3.42057 12.0002 3.50686 11.9819 3.58666 11.9467C3.66849 11.9149 3.74326 11.8674 3.80666 11.8067L5.13999 10.4733C5.20215 10.4112 5.25146 10.3374 5.2851 10.2562C5.31874 10.175 5.33605 10.0879 5.33605 10C5.33605 9.91209 5.31874 9.82505 5.2851 9.74383C5.25146 9.66262 5.20215 9.58883 5.13999 9.52667C5.07783 9.46451 5.00404 9.4152 4.92282 9.38156C4.84161 9.34792 4.75456 9.33061 4.66666 9.33061C4.57875 9.33061 4.49171 9.34792 4.41049 9.38156C4.32928 9.4152 4.25548 9.46451 4.19332 9.52667ZM7.33332 5.33333H14C14.1768 5.33333 14.3464 5.2631 14.4714 5.13807C14.5964 5.01305 14.6667 4.84348 14.6667 4.66667C14.6667 4.48986 14.5964 4.32029 14.4714 4.19526C14.3464 4.07024 14.1768 4 14 4H7.33332C7.15651 4 6.98694 4.07024 6.86192 4.19526C6.7369 4.32029 6.66666 4.48986 6.66666 4.66667C6.66666 4.84348 6.7369 5.01305 6.86192 5.13807C6.98694 5.2631 7.15651 5.33333 7.33332 5.33333ZM14 7.33333H7.33332C7.15651 7.33333 6.98694 7.40357 6.86192 7.5286C6.7369 7.65362 6.66666 7.82319 6.66666 8C6.66666 8.17681 6.7369 8.34638 6.86192 8.4714C6.98694 8.59643 7.15651 8.66667 7.33332 8.66667H14C14.1768 8.66667 14.3464 8.59643 14.4714 8.4714C14.5964 8.34638 14.6667 8.17681 14.6667 8C14.6667 7.82319 14.5964 7.65362 14.4714 7.5286C14.3464 7.40357 14.1768 7.33333 14 7.33333ZM14 10.6667H7.33332C7.15651 10.6667 6.98694 10.7369 6.86192 10.8619C6.7369 10.987 6.66666 11.1565 6.66666 11.3333C6.66666 11.5101 6.7369 11.6797 6.86192 11.8047C6.98694 11.9298 7.15651 12 7.33332 12H14C14.1768 12 14.3464 11.9298 14.4714 11.8047C14.5964 11.6797 14.6667 11.5101 14.6667 11.3333C14.6667 11.1565 14.5964 10.987 14.4714 10.8619C14.3464 10.7369 14.1768 10.6667 14 10.6667Z" fill="currentColor"/>
</svg>
