<svg fill="none" width="100%" height="100%" viewBox="0 0 16 16" xmlns="http://www.w3.org/2000/svg">
  <path d="M14.4734 10.3865L11.46 7.37988C11.5231 7.0728 11.5544 6.76004 11.5534 6.44655C11.5532 5.58698 11.3362 4.74135 10.9227 3.9878C10.5091 3.23426 9.91228 2.59713 9.18732 2.13531C8.46236 1.67349 7.63267 1.40187 6.77495 1.34557C5.91723 1.28928 5.05916 1.45011 4.28005 1.81321C4.18134 1.85831 4.09513 1.92681 4.02891 2.01279C3.96269 2.09876 3.91845 2.1996 3.90005 2.30655C3.88172 2.41214 3.88911 2.52059 3.92161 2.62272C3.9541 2.72485 4.01074 2.81763 4.08672 2.89322L6.98672 5.78655L5.78672 6.98655L2.89338 4.08655C2.81716 4.01175 2.72409 3.95636 2.62199 3.92503C2.5199 3.89371 2.41177 3.88737 2.30672 3.90655C2.20044 3.92428 2.10004 3.9675 2.01412 4.03252C1.9282 4.09754 1.85932 4.18242 1.81338 4.27988C1.44907 5.06155 1.28837 5.92267 1.34624 6.78312C1.40412 7.64358 1.67868 8.47542 2.14439 9.20127C2.6101 9.92711 3.25183 10.5234 4.00988 10.9346C4.76793 11.3458 5.61767 11.5586 6.48005 11.5532C6.79354 11.5542 7.1063 11.5229 7.41338 11.4599L10.42 14.4732C10.482 14.5357 10.5558 14.5853 10.637 14.6191C10.7182 14.653 10.8054 14.6704 10.8934 14.6704C10.9814 14.6704 11.0685 14.653 11.1498 14.6191C11.231 14.5853 11.3047 14.5357 11.3667 14.4732C11.4292 14.4112 11.4788 14.3375 11.5126 14.2563C11.5465 14.175 11.5639 14.0879 11.5639 13.9999C11.5639 13.9119 11.5465 13.8247 11.5126 13.7435C11.4788 13.6623 11.4292 13.5885 11.3667 13.5265L8.10005 10.2599C8.01842 10.1788 7.91719 10.1202 7.8062 10.0898C7.69522 10.0595 7.57827 10.0583 7.46672 10.0865C7.14483 10.1727 6.81327 10.2176 6.48005 10.2199C5.98142 10.2243 5.48684 10.13 5.02481 9.9424C4.56278 9.75482 4.14243 9.47768 3.78798 9.12695C3.43352 8.77621 3.15197 8.35881 2.95953 7.89878C2.76709 7.43876 2.66758 6.9452 2.66672 6.44655C2.66585 6.22323 2.68369 6.00023 2.72005 5.77988L5.33338 8.39988C5.39536 8.46237 5.46909 8.51196 5.55033 8.54581C5.63157 8.57966 5.71871 8.59708 5.80672 8.59708C5.89472 8.59708 5.98186 8.57966 6.0631 8.54581C6.14434 8.51196 6.21807 8.46237 6.28005 8.39988L8.40005 6.25988C8.52021 6.13557 8.58738 5.96944 8.58738 5.79655C8.58738 5.62366 8.52021 5.45753 8.40005 5.33321L5.80672 2.71988C6.0271 2.68389 6.25008 2.66605 6.47338 2.66655C7.47475 2.66831 8.43449 3.06734 9.14194 3.77604C9.84938 4.48474 10.2467 5.44518 10.2467 6.44655C10.2444 6.77977 10.1996 7.11133 10.1134 7.43322C10.0852 7.54476 10.0863 7.66172 10.1167 7.7727C10.147 7.88368 10.2056 7.98492 10.2867 8.06655L13.5534 11.3332C13.6789 11.4588 13.8492 11.5293 14.0267 11.5293C14.2043 11.5293 14.3745 11.4588 14.5 11.3332C14.6256 11.2077 14.6961 11.0374 14.6961 10.8599C14.6961 10.6823 14.6256 10.5121 14.5 10.3865H14.4734Z" fill="currentColor"/>
</svg>
