<svg fill="none" width="100%" height="100%" viewBox="0 0 164 156" xmlns="http://www.w3.org/2000/svg">
<path d="M85.9033 155.319C128.606 155.319 163.223 120.702 163.223 78C163.223 35.2977 128.606 0.680664 85.9033 0.680664C43.201 0.680664 8.58398 35.2977 8.58398 78C8.58398 120.702 43.201 155.319 85.9033 155.319Z" fill="url(#paint0_linear_5851_52643)"/>
<path d="M39.5209 113.277L123.207 134.336C125.856 135.003 128.482 133.164 128.755 130.444C130.597 112.264 136.591 51.9785 135.555 47.3521C101.981 64.1804 37.2754 104.772 37.2754 104.772L36.361 107.515C35.5378 109.987 36.9888 112.639 39.5183 113.274L39.5209 113.277Z" fill="#CCE6E8"/>
<path d="M54.7135 25.6706L132.398 44.9502C134.904 45.5728 136.305 48.2378 135.401 50.6578C131.283 61.6796 118.729 90.8583 92.6737 118.359C91.5744 119.521 89.9228 119.975 88.3833 119.545C69.1296 114.165 22.8699 99.8795 4.81715 94.2839C1.6182 93.2914 0.719472 89.1963 3.20726 86.9508C14.526 76.7392 39.4039 52.4943 49.7041 28.1662C50.5299 26.215 52.6582 25.16 54.7135 25.6706V25.6706Z" fill="url(#paint1_linear_5851_52643)" stroke="#9FDCE0" stroke-width="2" stroke-linecap="round" stroke-linejoin="round"/>
<path d="M45.7209 67.5435C48.0775 67.5435 49.9879 65.6331 49.9879 63.2765C49.9879 60.9199 48.0775 59.0095 45.7209 59.0095C43.3643 59.0095 41.4539 60.9199 41.4539 63.2765C41.4539 65.6331 43.3643 67.5435 45.7209 67.5435Z" fill="#9FDCE0"/>
<path d="M56.0549 65.8477L102.718 78" stroke="#9FDCE0" stroke-width="2" stroke-linecap="round" stroke-linejoin="round"/>
<path d="M56.2607 48.553C58.6173 48.553 60.5277 46.6426 60.5277 44.286C60.5277 41.9294 58.6173 40.019 56.2607 40.019C53.9041 40.019 51.9937 41.9294 51.9937 44.286C51.9937 46.6426 53.9041 48.553 56.2607 48.553Z" fill="#9FDCE0"/>
<path d="M66.5945 46.8597L113.258 59.0095" stroke="#9FDCE0" stroke-width="2" stroke-linecap="round" stroke-linejoin="round"/>
<path d="M29.8954 86.534C32.252 86.534 34.1624 84.6236 34.1624 82.267C34.1624 79.9104 32.252 78 29.8954 78C27.5388 78 25.6284 79.9104 25.6284 82.267C25.6284 84.6236 27.5388 86.534 29.8954 86.534Z" fill="#9FDCE0"/>
<path d="M40.2297 84.8381L86.8933 96.9905" stroke="#9FDCE0" stroke-width="2" stroke-linecap="round" stroke-linejoin="round"/>
<defs>
<linearGradient id="paint0_linear_5851_52643" x1="85.9033" y1="-17.9347" x2="85.9033" y2="156.361" gradientUnits="userSpaceOnUse">
<stop offset="0.05" stop-color="#F1FAFB"/>
<stop offset="0.39" stop-color="#EBF7F8"/>
<stop offset="0.85" stop-color="#DAF0F2"/>
<stop offset="1" stop-color="#D3EEF0"/>
</linearGradient>
<linearGradient id="paint1_linear_5851_52643" x1="97.9932" y1="32.8969" x2="58.5" y2="148" gradientUnits="userSpaceOnUse">
<stop offset="0.539151" stop-color="#F1FAFB"/>
<stop offset="0.729918" stop-color="#D3EEF0"/>
</linearGradient>
</defs>
</svg>
